#!OML:ASF F:\VICON\USERDATA\INSTALL\rory3\rory3.ASF
:FULLY-SPECIFIED
:DEGREES
493
root 3.78058 17.5805 11.7541 -181.35 -7.5618 -178.547
lowerback 12.908 0.650878 -4.36654
upperback 0.168838 0.235195 1.40334
thorax -7.10722 0.257467 3.92492
lowerneck -18.2359 -6.92519 -11.8321
upperneck 28.936 -12.0508 11.6371
head 14.4831 -5.67912 4.35997
rclavicle -2.00648e-015 1.55052e-014
rhumerus -37.8543 -19.582 -72.9296
rradius 32.6615
rwrist 7.57811
rhand -16.4084 7.72789
rfingers 7.12502
rthumb 9.80615 -22.0238
lclavicle -2.00648e-015 1.55052e-014
lhumerus -35.9244 3.76713 85.0547
lradius 34.3479
lwrist -2.57458
lhand -16.2893 25.5296
lfingers 7.12502
lthumb 9.92106 55.2759
rfemur -12.4713 -2.21648 21.1162
rtibia 39.178
rfoot -27.8385 6.01067
rtoes -7.94511
lfemur -7.79168 -0.540375 -21.5108
ltibia 32.4697
lfoot -19.8903 -6.06488
ltoes 0.189718
494
root 3.84464 17.5929 11.7695 -181.096 -7.64949 -178.684
lowerback 12.8207 0.6226 -4.83616
upperback 0.0750578 0.133386 1.35271
thorax -7.15058 0.229415 4.15718
lowerneck -18.0348 -6.93407 -11.8409
upperneck 28.839 -12.1579 11.8158
head 14.4291 -5.72061 4.4148
rclavicle 1.55301e-014 9.0447e-015
rhumerus -37.9568 -20.3243 -72.804
rradius 32.4174
rwrist 7.77897
rhand -16.6746 7.93303
rfingers 7.12502
rthumb 9.54931 -21.8306
lclavicle 1.55301e-014 9.0447e-015
lhumerus -36.0315 3.37064 85.1312
lradius 34.5653
lwrist -2.34436
lhand -16.2848 26.0009
lfingers 7.12502
lthumb 9.9254 55.7469
rfemur -13.0421 -2.84599 21.0544
rtibia 39.6357
rfoot -28.4575 6.39696
rtoes -9.14979
lfemur -8.11803 -0.258438 -21.377
ltibia 32.4082
lfoot -19.9341 -6.53503
ltoes -0.697826
495
root 3.90326 17.6058 11.7824 -180.919 -7.72241 -178.909
lowerback 12.7807 0.633966 -5.26213
upperback 0.0539831 0.0810785 1.24482
thorax -7.14679 0.218216 4.29381
lowerneck -18.0007 -6.99252 -11.8733
upperneck 28.846 -12.3086 11.9472
head 14.4635 -5.78003 4.44427
rclavicle -8.79622e-015 -5.26779e-015
rhumerus -37.9857 -21.2863 -72.6163
rradius 32.0976
rwrist 8.10339
rhand -16.9352 8.08106
rfingers 7.12502
rthumb 9.29783 -21.6939
lclavicle -8.79622e-015 -5.26779e-015
lhumerus -35.9663 2.80813 85.2255
lradius 34.6761
lwrist -2.13304
lhand -16.3792 26.1847
lfingers 7.12502
lthumb 9.83429 55.9351
rfemur -13.5059 -3.41934 20.8448
rtibia 40.0813
rfoot -29.0216 6.69789
rtoes -10.6695
lfemur -8.34635 -0.100055 -21.3697
ltibia 32.3277
lfoot -19.833 -6.78569
ltoes -1.35398
496
root 3.95798 17.6105 11.7989 -180.845 -7.87602 -179.232
lowerback 12.928 0.628456 -5.64481
upperback 0.0726421 -0.00703334 1.07102
thorax -7.20117 0.18563 4.34338
lowerneck -18.1244 -7.07607 -11.8962
upperneck 28.9679 -12.5075 12.0753
head 14.5916 -5.85433 4.4598
rclavicle 1.0312e-014 4.57205e-015
rhumerus -37.9813 -21.8153 -72.7076
rradius 31.8308
rwrist 7.91097
rhand -17.3237 7.46844
rfingers 7.12502
rthumb 8.92295 -22.3229
lclavicle 1.0312e-014 4.57205e-015
lhumerus -35.7289 2.22658 85.2788
lradius 34.6328
lwrist -1.85556
lhand -16.6738 26.2339
lfingers 7.12502
lthumb 9.55006 55.9974
rfemur -13.8673 -4.04033 20.4674
rtibia 40.5102
rfoot -29.2763 7.01784
rtoes -11.5888
lfemur -8.43658 -0.0971034 -21.4971
ltibia 32.2114
lfoot -19.6823 -6.96907
ltoes -1.49815
497
root 4.01087 17.6108 11.8154 -180.781 -8.07899 -179.512
lowerback 12.9897 0.617993 -5.92145
upperback 0.120204 -0.0836009 0.882109
thorax -7.17675 0.150702 4.31312
lowerneck -18.0241 -7.16261 -11.9805
upperneck 28.8887 -12.7524 12.392
head 14.6115 -5.94292 4.55494
rclavicle -9.74045e-015 3.97569e-015
rhumerus -38.0048 -22.321 -72.8662
rradius 31.5668
rwrist 7.62902
rhand -17.508 6.38354
rfingers 7.12502
rthumb 8.7451 -23.4153
lclavicle -9.74045e-015 3.97569e-015
lhumerus -35.3572 1.62962 85.272
lradius 34.3961
lwrist -1.734
lhand -16.6117 26.294
lfingers 7.12502
lthumb 9.60998 56.0548
rfemur -14.1935 -4.5149 20.0913
rtibia 40.9168
rfoot -29.2808 7.30088
rtoes -11.1004
lfemur -8.50243 -0.0946327 -21.5935
ltibia 32.0591
lfoot -19.4855 -7.38346
ltoes -0.799962
498
root 4.06387 17.6133 11.8357 -180.798 -8.35015 -179.484
lowerback 13.1688 0.567776 -5.83557
upperback 0.12751 -0.157571 0.797971
thorax -7.26124 0.111467 4.19002
lowerneck -17.7844 -7.21836 -12.103
upperneck 28.7406 -12.8868 12.6004
head 14.5446 -6.00343 4.63646
rclavicle -1.63252e-014 -3.97569e-016
rhumerus -38.1229 -22.9964 -72.7884
rradius 31.2404
rwrist 7.8276
rhand -17.4288 6.21439
rfingers 7.12502
rthumb 8.82156 -23.5812
lclavicle -1.63252e-014 -3.97569e-016
lhumerus -35.0991 1.18614 85.2563
lradius 34.1483
lwrist -1.77953
lhand -16.6906 26.2264
lfingers 7.12502
lthumb 9.53386 55.9907
rfemur -14.4287 -4.77372 20.0323
rtibia 41.242
rfoot -29.2463 7.27303
rtoes -9.99259
lfemur -8.59539 -0.164906 -21.3633
ltibia 31.9418
lfoot -19.4139 -7.66742
ltoes -0.879258
499
root 4.11461 17.6083 11.8526 -180.908 -8.48701 -179.43
lowerback 13.4339 0.552091 -5.68378
upperback 0.161427 -0.181786 0.721406
thorax -7.3716 0.0933281 4.0291
lowerneck -17.8219 -7.31556 -12.0799
upperneck 28.8231 -13.0012 12.4566
head 14.5933 -6.06338 4.54958
rclavicle 9.69075e-015 1.21259e-014
rhumerus -38.1778 -23.4238 -72.8083
rradius 30.9524
rwrist 8.04094
rhand -17.554 6.47056
rfingers 7.12502
rthumb 8.70074 -23.3301
lclavicle 9.69075e-015 1.21259e-014
lhumerus -34.8342 0.943617 85.1502
lradius 33.9431
lwrist -2.21631
lhand -16.6246 26.1181
lfingers 7.12502
lthumb 9.59754 55.8795
rfemur -14.4536 -4.73908 19.9465
rtibia 41.4664
rfoot -29.349 6.56605
rtoes -11.3818
lfemur -8.5481 -0.50414 -21.1542
ltibia 31.8434
lfoot -19.4659 -7.36601
ltoes -1.29413
500
root 4.16156 17.5983 11.8655 -181.025 -8.53605 -179.386
lowerback 13.5739 0.578299 -5.54072
upperback 0.233399 -0.141197 0.669274
thorax -7.37759 0.10298 3.88512
lowerneck -17.7622 -7.43719 -12.0145
upperneck 28.8419 -13.1224 12.2137
head 14.5796 -6.13439 4.41344
rclavicle -2.84759e-014 -3.77691e-015
rhumerus -38.2034 -23.4232 -72.9952
rradius 30.8545
rwrist 7.83121
rhand -17.6973 6.34264
rfingers 7.12502
rthumb 8.56249 -23.4637
lclavicle -2.84759e-014 -3.77691e-015
lhumerus -34.4789 0.823947 85.0357
lradius 33.6276
lwrist -2.82678
lhand -16.5534 25.8624
lfingers 7.12502
lthumb 9.66622 55.6206
rfemur -14.3637 -4.64018 19.7801
rtibia 41.5943
rfoot -29.5261 5.29464
rtoes -14.2762
lfemur -8.42616 -0.832722 -20.9745
ltibia 31.7192
lfoot -19.4059 -7.04182
ltoes -1.16019
501
root 4.20947 17.6048 11.8785 -181.027 -8.632 -179.392
lowerback 13.5853 0.567874 -5.47245
upperback 0.270117 -0.150367 0.619292
thorax -7.34349 0.0922097 3.7945
lowerneck -17.5854 -7.49742 -12.0866
upperneck 28.798 -13.209 12.2073
head 14.5402 -6.18888 4.40838
rclavicle 1.04113e-014 1.92821e-014
rhumerus -38.3016 -23.4839 -73.1137
rradius 30.8096
rwrist 7.96402
rhand -17.6308 6.24781
rfingers 7.12502
rthumb 8.62667 -23.5559
lclavicle 1.04113e-014 1.92821e-014
lhumerus -34.1816 0.845628 84.9216
lradius 33.2633
lwrist -3.07095
lhand -16.684 25.4603
lfingers 7.12502
lthumb 9.54022 55.2243
rfemur -14.4127 -4.63406 19.5287
rtibia 41.6634
rfoot -29.3727 3.95197
rtoes -13.6212
lfemur -8.38144 -1.14984 -20.8415
ltibia 31.515
lfoot -19.1644 -6.97983
ltoes 0.177802
502
root 4.25696 17.6206 11.8855 -181.092 -8.64961 -179.396
lowerback 13.6924 0.591735 -5.37217
upperback 0.255848 -0.115484 0.555593
thorax -7.42286 0.106626 3.66348
lowerneck -17.3634 -7.52055 -12.3034
upperneck 28.8498 -13.298 12.3495
head 14.5604 -6.25419 4.49272
rclavicle -6.75868e-015 1.55052e-014
rhumerus -38.5158 -23.4299 -73.2171
rradius 30.7924
rwrist 8.20666
rhand -17.4438 5.97153
rfingers 7.12502
rthumb 8.80707 -23.8247
lclavicle -6.75868e-015 1.55052e-014
lhumerus -34.0536 0.954445 84.7244
lradius 33.0503
lwrist -3.61436
lhand -16.7606 25.28
lfingers 7.12502
lthumb 9.46632 55.0474
rfemur -14.4156 -4.671 19.2159
rtibia 41.6971
rfoot -28.9887 2.70037
rtoes -11.3956
lfemur -8.20087 -1.45553 -20.7176
ltibia 31.2347
lfoot -19.0328 -6.75592
ltoes 0.758058
